<svg width="20" height="17" viewBox="0 0 20 17" fill="none" xmlns="http://www.w3.org/2000/svg">
<path d="M1.70706 11.2071L6.53029 16.0303L6.70706 16.2071L6.88384 16.0303L8.29784 14.6163L8.47462 14.4395L8.29784 14.2627L5.43162 11.3965L12.1641 11.3965H12.4141H12.6641V11.3922C14.4961 11.3291 16.24 10.5736 17.5406 9.27304C18.8412 7.97244 19.5966 6.22857 19.6598 4.39652H19.6641V4.14652V3.89652V2.39652V2.14652V1.89652H19.6388C19.5902 1.65815 19.4725 1.43723 19.2979 1.26263C19.0635 1.02821 18.7456 0.896516 18.4141 0.896516C18.0825 0.896516 17.7646 1.02821 17.5302 1.26263C17.3556 1.43723 17.238 1.65815 17.1893 1.89652H17.1641V2.14652V2.39652V3.89652V4.14652C17.1641 5.40629 16.6636 6.61448 15.7728 7.50527C14.882 8.39607 13.6738 8.89652 12.4141 8.89652H12.1641L5.43162 8.89652L8.29784 6.03029L8.47462 5.85352L8.29784 5.67674L6.88384 4.26274L6.70706 4.08596L6.53029 4.26274L1.70706 9.08596L1.53028 9.26274L1.35351 9.43952L0.823286 9.96974L0.646509 10.1465L0.823286 10.3233L1.35351 10.8535L1.53028 11.0303L1.70706 11.2071Z" fill="black" stroke="black" stroke-width="0.5"/>
</svg>
